<?xml version="1.0" standalone="no"?>
<!DOCTYPE svg PUBLIC "-//W3C//DTD SVG 20010904//EN"
 "http://www.w3.org/TR/2001/REC-SVG-20010904/DTD/svg10.dtd">
<svg version="1.0" xmlns="http://www.w3.org/2000/svg"
 width="1536.000000pt" height="1024.000000pt" viewBox="0 0 1536.000000 1024.000000"
 preserveAspectRatio="xMidYMid meet">

<g fill-rule="evenodd" transform="translate(0.000000,1024.000000) scale(0.100000,-0.100000)"
fill="#ffffff" stroke="none">
<path d="m3670 853 c109 -306 360 -1015 360 -1019 0 -2 -75 -3 -167 -2 l-167 3
-29 93 -28 92 -209 0 -209 0 -28 -92 -29 -93 -166 -3 -167 -2 41 112 c71 198
314 891 333 948 10 30 22 61 28 68 7 9 60 12 202 12 l193 0 42 -117z m1023 96
c146 -22 291 -99 368 -194 45 -57 87 -150 105 -236 18 -85 13 -223 -11 -302
-40 -132 -142 -257 -257 -314 -126 -62 -162 -67 -488 -68 l-295 0 -3 563 -2
562 256 0 c140 0 288 -5 327 -11z m7597 -85 c25 -10 62 -28 83 -41 35 -22 37
-26 37 -73 0 -28 -2 -50 -5 -50 -3 0 -28 15 -55 34 -70 48 -113 61 -205 61
-181 0 -284 -110 -293 -312 -7 -146 35 -245 131 -310 89 -60 207 -64 325 -13
l42 19 0 105 0 105 -107 3 -108 3 -3 43 -3 42 160 0 161 0 0 -164 0 -164 -59
-40 c-155 -103 -380 -93 -508 23 -88 79 -133 190 -133 332 0 259 172 431 420
419 41 -2 95 -12 120 -22z m-6451 -221 c75 -128 138 -232 141 -233 5 0 244
397 269 448 10 19 20 22 66 22 l55 0 0 -415 0 -415 -50 0 -50 0 0 331 0 332
-113 -189 c-131 -218 -167 -274 -177 -274 -4 0 -70 104 -146 232 l-139 231 -3
-331 -2 -332 -44 0 -44 0 -4 358 c-1 196 -1 383 0 415 l4 58 51 -3 51 -3 135
-232z m1163 169 c15 -37 86 -218 158 -402 73 -184 134 -341 137 -348 4 -10 -7
-12 -48 -10 l-53 3 -28 75 c-15 41 -35 90 -43 108 l-15 32 -187 -2 -187 -3
-42 -105 -42 -105 -52 -3 c-47 -3 -52 -1 -46 15 4 10 77 197 164 415 l157 398
50 0 50 0 27 -68z m913 40 c104 -48 144 -113 145 -232 0 -68 -3 -81 -32 -130
-31 -50 -80 -87 -141 -105 -15 -4 -1 -30 93 -167 l111 -163 -47 -3 c-26 -2
-52 -1 -59 2 -7 2 -59 75 -115 160 l-102 156 -99 0 -99 0 0 -160 0 -160 -45 0
-45 0 -2 328 c0 180 -2 363 -3 407 0 44 1 84 3 88 2 5 90 7 196 5 173 -3 196
-5 241 -26z m477 -187 l3 -216 200 215 200 215 58 1 c31 0 57 -3 57 -6 0 -3
-74 -83 -165 -177 -91 -94 -165 -174 -165 -177 0 -3 78 -110 174 -238 l175
-232 -62 0 c-54 0 -64 3 -76 23 -8 12 -73 102 -145 199 l-131 178 -62 -62 -63
-62 0 -138 0 -138 -45 0 -45 0 0 415 0 415 45 0 45 0 2 -215z m1243 170 l0
-40 -217 -3 -218 -2 0 -140 0 -140 198 -2 197 -3 0 -40 0 -40 -197 -3 -198 -2
0 -140 0 -140 220 0 220 0 0 -45 0 -45 -270 0 -270 0 0 408 c0 225 3 412 7
415 4 4 124 6 267 5 l261 -3 0 -40z m743 -2 l3 -43 -125 0 -126 0 0 -370 0
-370 -50 0 -50 0 0 370 0 370 -120 0 -120 0 0 45 0 45 293 -2 292 -3 3 -42z
m267 -368 l0 -410 -47 -3 -48 -3 0 416 0 416 48 -3 47 -3 0 -410z m411 303
c45 -62 150 -210 235 -328 l154 -215 3 328 2 328 48 -3 47 -3 0 -410 0 -410
-45 -3 -45 -2 -139 197 c-77 109 -183 258 -235 332 l-96 134 -3 -332 -2 -331
-45 0 -45 0 0 415 0 415 43 0 43 0 80 -112z m1399 -988 c-4 -7 -1165 -10
-3451 -10 -2289 0 -3444 3 -3444 10 0 7 1157 10 3451 10 2297 0 3448 -3 3444
-10z m-8145 -510 c0 -109 -2 -130 -15 -130 -8 0 -15 4 -15 9 0 5 -14 3 -31 -6
-60 -30 -106 20 -95 102 7 54 38 79 88 71 l38 -6 0 45 c0 33 4 45 15 45 13 0
15 -21 15 -130z m90 104 c0 -28 -16 -64 -28 -64 -7 0 -9 77 -3 88 0 1 8 2 16
2 9 0 15 -10 15 -26z m340 11 c0 -9 -6 -15 -12 -14 -29 4 -38 -2 -38 -26 0
-18 5 -25 20 -25 11 0 20 -7 20 -15 0 -8 -9 -15 -20 -15 -18 0 -20 -7 -20 -75
0 -68 -2 -75 -20 -75 -18 0 -20 7 -20 75 0 43 -4 75 -10 75 -5 0 -10 7 -10 15
0 8 4 15 9 15 5 0 12 13 16 30 7 33 28 49 63 50 13 0 22 -6 22 -15z m140 -1
c0 -10 -6 -14 -15 -10 -17 6 -45 -19 -45 -40 0 -8 10 -14 25 -14 32 0 34 -27
3 -32 -21 -3 -23 -9 -26 -75 -2 -56 -6 -73 -17 -73 -12 0 -15 16 -15 75 0 60
-3 75 -15 75 -8 0 -15 5 -15 10 0 6 7 13 15 16 8 4 15 14 15 23 0 9 7 27 16
39 18 27 74 31 74 6z m259 -20 c-9 -11 -15 -12 -25 -3 -11 9 -12 15 -3 25 9
11 15 12 25 3 11 -9 12 -15 3 -25z m2178 20 c8 -21 -13 -42 -28 -27 -13 13 -5
43 11 43 6 0 13 -7 17 -16z m1256 9 c8 -7 -31 -53 -45 -53 -13 0 -9 22 9 42
17 19 26 22 36 11z m497 -123 c0 -123 -1 -130 -20 -130 -19 0 -20 7 -20 123 0
125 2 137 27 137 10 0 13 -28 13 -130z m3550 0 c0 -109 -2 -130 -15 -130 -13
0 -15 21 -15 130 0 109 2 130 15 130 13 0 15 -21 15 -130z m-9582 -5 c44 -111
47 -125 31 -125 -12 0 -24 13 -33 34 -14 33 -15 33 -66 31 -49 -3 -54 -6 -66
-34 -14 -33 -52 -46 -39 -13 4 9 25 65 47 125 54 144 61 143 126 -18z m3230
113 c-3 -8 -27 -14 -61 -16 l-57 -3 0 -39 0 -40 50 0 c38 0 50 -4 50 -15 0
-11 -12 -15 -50 -15 l-50 0 0 -55 c0 -48 -2 -55 -20 -55 -19 0 -20 7 -20 125
l0 125 81 0 c60 0 80 -3 77 -12z m2090 -8 c51 -32 66 -96 38 -165 -20 -46 -61
-65 -141 -65 l-65 0 0 125 0 125 68 0 c49 0 76 -5 100 -20z m3992 7 c0 -8 -3
-17 -7 -20 -9 -9 -34 13 -27 24 8 14 34 11 34 -4z m-8410 -31 c0 -24 23 -41
41 -30 5 3 9 -2 9 -10 0 -8 -9 -16 -20 -18 -12 -2 -21 -6 -20 -10 0 -5 0 -33
0 -64 0 -51 2 -55 22 -52 32 5 34 -20 2 -28 -42 -11 -64 23 -64 97 0 46 -3 59
-15 59 -8 0 -15 5 -15 10 0 6 7 13 15 16 8 4 15 14 15 23 0 10 3 21 7 24 13
14 23 6 23 -17z m3250 0 c0 -18 6 -26 22 -28 32 -5 35 -28 3 -28 -26 0 -26 -1
-23 -62 3 -57 5 -63 26 -66 12 -2 22 -7 22 -12 0 -15 -38 -22 -60 -10 -17 9
-20 21 -20 80 0 56 -3 70 -15 70 -8 0 -15 4 -15 9 0 5 7 11 15 15 8 3 15 17
15 31 0 16 6 25 15 25 9 0 15 -9 15 -24z m3500 -1 c0 -14 5 -26 10 -26 6 -1
15 -2 22 -3 25 -2 19 -26 -7 -26 -26 0 -26 -1 -23 -62 3 -57 5 -63 26 -66 12
-2 22 -7 22 -12 0 -15 -38 -22 -60 -10 -17 9 -20 21 -20 80 0 56 -3 70 -15 70
-8 0 -15 7 -15 15 0 8 7 15 15 15 8 0 15 8 15 18 0 10 3 22 7 25 13 14 23 6
23 -18z m-7535 -35 c4 -7 12 -7 25 0 29 16 58 12 80 -10 17 -17 20 -31 18 -77
-3 -48 -7 -59 -31 -77 -23 -17 -32 -19 -57 -9 l-30 11 0 -39 c0 -28 -4 -39
-15 -39 -13 0 -15 21 -15 125 0 114 7 145 25 115z m234 -1 c30 16 52 13 78
-11 33 -31 33 -109 -2 -143 -26 -27 -46 -31 -76 -15 -17 10 -19 7 -19 -30 0
-33 -3 -40 -20 -40 -19 0 -20 7 -20 118 0 65 3 122 7 125 3 4 12 2 19 -4 9 -7
19 -7 33 0z m286 -14 c32 -32 35 -105 5 -135 -63 -63 -163 -5 -146 85 13 69
94 98 141 50z m125 10 c14 17 56 17 53 0 -1 -5 -10 -12 -20 -14 -39 -7 -53
-32 -53 -93 0 -45 -3 -58 -15 -58 -12 0 -15 16 -15 83 0 87 7 109 26 82 10
-14 13 -14 24 0z m766 -6 c13 -15 20 -40 22 -91 4 -69 4 -71 -18 -65 -12 3
-34 1 -47 -4 -32 -12 -60 -4 -74 22 -17 32 12 67 62 75 33 6 40 10 37 28 -2
17 -10 21 -43 22 -59 1 -63 3 -35 19 36 21 74 18 96 -6z m464 1 c16 -16 20
-33 20 -90 0 -56 -3 -70 -15 -70 -8 0 -15 4 -15 10 0 5 -12 2 -27 -6 -41 -23
-83 -5 -83 35 0 34 15 45 73 56 38 7 46 22 25 43 -15 15 -54 16 -63 2 -7 -11
-25 -4 -25 9 0 11 41 30 68 30 12 1 31 -8 42 -19z m110 -70 c0 -73 -3 -90 -15
-90 -12 0 -15 16 -15 83 0 46 3 87 7 90 18 18 23 0 23 -83z m92 79 c3 -9 9 -9
25 0 30 15 53 14 53 -4 0 -9 -9 -15 -23 -15 -37 0 -47 -19 -47 -87 0 -56 -2
-63 -20 -63 -18 0 -20 7 -20 83 0 46 3 87 7 90 10 10 21 8 25 -4z m228 1 c19
-10 43 -67 34 -81 -3 -5 -32 -9 -65 -9 -32 0 -59 -3 -59 -8 0 -4 7 -18 16 -30
16 -24 44 -28 74 -12 23 12 40 -7 19 -21 -45 -29 -108 -16 -128 27 -39 87 32
175 109 134z m186 -5 c20 -15 18 -17 -36 -19 -47 -1 -45 -21 5 -49 33 -18 40
-28 40 -52 0 -41 -41 -61 -91 -45 -19 7 -33 17 -31 23 3 7 11 10 18 8 35 -11
74 -5 77 11 2 11 -11 23 -42 37 -38 16 -46 24 -46 47 0 48 63 71 106 39z m785
2 c89 -68 10 -214 -89 -163 -35 18 -42 33 -42 87 0 52 35 89 82 89 18 0 40 -6
49 -13z m114 3 c4 -7 12 -7 25 0 27 15 50 12 50 -5 0 -9 -9 -15 -23 -15 -37 0
-47 -19 -47 -87 0 -53 -3 -63 -17 -63 -18 0 -20 19 -14 158 1 23 15 30 26 12z
m140 0 c4 -7 13 -6 27 1 22 12 68 4 68 -12 0 -5 10 -3 22 5 29 21 57 20 80 -1
24 -21 27 -163 3 -163 -11 0 -15 17 -17 73 l-3 72 -30 0 -30 0 -3 -72 c-3 -65
-5 -73 -22 -73 -18 0 -20 7 -20 70 0 56 -3 72 -16 77 -34 13 -49 -11 -52 -81
-2 -50 -6 -66 -17 -66 -12 0 -15 18 -15 90 0 82 8 107 25 80z m385 -10 c16
-16 20 -33 20 -91 0 -67 -1 -71 -21 -66 -11 3 -33 1 -49 -4 -37 -14 -70 3 -70
36 0 33 22 52 70 60 41 7 45 11 34 39 -7 18 -59 22 -69 6 -7 -12 -25 -4 -25
11 0 12 37 28 68 28 12 1 31 -8 42 -19z m248 -73 c2 -73 0 -87 -13 -87 -12 0
-15 16 -15 91 0 68 3 90 13 87 8 -3 13 -33 15 -91z m193 64 c69 -70 6 -181
-86 -151 -18 6 -37 22 -44 36 -46 101 55 190 130 115z m104 19 c4 -7 12 -7 25
0 27 15 56 12 74 -6 22 -22 23 -164 1 -164 -11 0 -15 17 -17 73 -3 67 -5 72
-26 75 -40 6 -52 -14 -52 -84 0 -50 -3 -64 -15 -64 -12 0 -15 17 -15 90 0 82
8 107 25 80z m950 4 c18 -7 45 -54 45 -79 0 -12 -13 -15 -65 -15 -36 0 -65 -3
-65 -8 0 -4 7 -18 16 -31 16 -22 34 -24 83 -10 25 7 22 -17 -4 -29 -41 -19
-64 -14 -96 17 -71 72 -6 190 86 155z m124 -62 c13 -34 27 -62 31 -62 3 0 17
28 31 62 13 34 30 63 37 66 18 6 15 -11 -19 -99 -42 -105 -55 -104 -101 4 -20
45 -33 86 -31 90 11 19 29 -3 52 -61z m256 62 c20 -8 48 -62 41 -80 -4 -10
-23 -14 -66 -14 -33 0 -60 -3 -60 -8 0 -4 7 -18 16 -31 16 -22 34 -24 83 -10
25 7 22 -17 -4 -29 -41 -19 -64 -14 -96 17 -69 70 -3 189 86 155z m308 -14
c52 -41 43 -130 -16 -158 -62 -30 -117 12 -117 87 0 42 4 53 26 70 34 27 74
27 107 1z m112 10 c4 -7 12 -7 25 0 29 15 52 12 77 -12 33 -31 33 -109 -2
-143 -26 -27 -46 -31 -76 -15 -17 10 -19 7 -19 -30 0 -33 -3 -40 -20 -40 -19
0 -20 7 -20 118 0 65 3 122 7 125 9 10 21 9 28 -3z m314 -16 c24 -30 27 -86 8
-123 -15 -31 -63 -48 -89 -32 -16 10 -18 7 -18 -29 0 -33 -3 -40 -20 -40 -19
0 -20 7 -20 121 0 121 0 121 23 116 12 -4 29 -2 37 3 27 17 58 11 79 -16z
m196 1 c14 -13 25 -35 25 -49 0 -25 -2 -25 -59 -23 -33 1 -63 -1 -66 -5 -4 -4
0 -19 9 -33 17 -26 68 -35 81 -15 7 11 25 4 25 -9 0 -10 -46 -31 -69 -31 -31
0 -70 39 -77 76 -17 89 72 149 131 89z m100 15 c4 -7 13 -6 27 1 22 12 68 4
68 -12 0 -5 10 -3 22 5 29 21 57 20 80 -1 24 -21 27 -163 3 -163 -11 0 -15 16
-17 66 -3 70 -18 94 -52 81 -13 -5 -16 -21 -16 -77 0 -63 -2 -70 -20 -70 -18
0 -20 7 -20 70 0 56 -3 72 -16 77 -34 13 -49 -11 -52 -81 -2 -50 -6 -66 -17
-66 -12 0 -15 18 -15 90 0 82 8 107 25 80z m395 -10 c11 -11 20 -33 20 -50 l0
-30 -60 0 c-65 0 -76 -12 -40 -45 17 -16 38 -17 77 -4 25 9 16 -17 -10 -29
-60 -29 -117 12 -117 83 0 35 6 52 25 70 30 31 77 33 105 5z m102 9 c3 -9 9
-9 25 0 30 15 53 14 75 -6 24 -22 27 -163 3 -163 -12 0 -15 14 -15 64 0 71
-14 92 -54 82 -21 -5 -25 -14 -31 -65 -4 -33 -4 -65 0 -70 3 -7 -3 -11 -14
-11 -20 0 -21 6 -21 83 0 46 3 87 7 90 10 10 21 8 25 -4z m529 0 c30 -15 13
-28 -28 -22 -28 5 -39 2 -49 -12 -19 -25 -18 -80 2 -99 18 -18 55 -21 71 -5 7
7 13 7 17 1 10 -16 -24 -36 -61 -36 -48 0 -73 31 -73 91 0 72 61 114 121 82z
m184 -14 c25 -24 32 -64 19 -113 -9 -31 -57 -55 -95 -47 -40 9 -59 40 -59 96
0 39 5 51 26 68 36 28 79 27 109 -4z m115 15 c21 14 46 12 62 -4 12 -11 17
-11 33 0 28 21 62 17 79 -8 22 -31 23 -158 1 -158 -12 0 -15 13 -15 59 0 75
-6 91 -35 91 -33 0 -38 -13 -36 -87 2 -58 0 -63 -18 -63 -19 0 -21 6 -21 70 0
56 -3 72 -16 77 -34 13 -49 -11 -52 -81 -2 -50 -6 -66 -17 -66 -12 0 -15 17
-15 83 0 86 5 104 24 87 7 -5 17 -5 26 0z m266 -1 c4 -8 9 -8 17 0 16 16 52
14 67 -4 11 -13 15 -13 33 0 28 19 52 19 71 -1 22 -22 23 -164 1 -164 -12 0
-15 14 -15 70 0 56 -3 72 -16 77 -34 13 -49 -11 -52 -81 -2 -50 -6 -66 -17
-66 -12 0 -15 15 -15 63 0 73 -9 90 -41 85 -22 -3 -24 -8 -27 -75 -2 -61 -6
-73 -20 -73 -15 0 -17 11 -14 90 3 84 11 106 28 79z m379 -14 c14 -13 25 -36
25 -51 0 -25 -1 -26 -43 -20 -24 4 -51 4 -60 0 -20 -7 -22 -35 -5 -52 15 -15
64 -16 73 -2 7 11 25 4 25 -10 0 -16 -66 -31 -93 -21 -34 13 -47 40 -47 95 0
36 5 48 26 65 35 28 69 26 99 -4z m166 10 c0 -5 -9 -11 -21 -13 -33 -5 -52
-45 -48 -102 2 -42 0 -50 -14 -50 -16 0 -18 11 -18 85 0 69 3 85 15 85 8 0 15
-5 15 -11 0 -5 10 -3 23 6 23 16 48 17 48 0z m137 9 c38 -11 27 -34 -13 -27
-21 3 -41 1 -50 -7 -17 -14 -20 -72 -5 -101 11 -20 54 -26 65 -9 9 15 25 12
25 -5 0 -20 -44 -37 -76 -29 -35 9 -54 42 -54 95 0 39 5 51 26 68 28 22 44 25
82 15z m102 -84 c0 -73 -3 -90 -15 -90 -12 0 -15 17 -15 90 0 73 3 90 15 90
12 0 15 -17 15 -90z m170 70 c16 -16 20 -33 20 -91 0 -68 -1 -71 -21 -66 -12
3 -32 1 -45 -5 -37 -17 -74 4 -74 41 0 33 16 46 73 59 31 6 33 10 26 30 -9 24
-52 31 -65 11 -4 -8 -10 -7 -18 1 -8 8 -6 15 8 26 28 20 73 17 96 -6z m-6598
-36 c15 -33 1 -58 -36 -62 -33 -4 -56 13 -56 42 0 51 71 66 92 20z m2076 14
c7 -7 12 -21 12 -33 0 -29 -19 -45 -52 -45 -36 0 -56 36 -39 69 13 23 59 29
79 9z"/>
<path d="M3420 5797 c0 -8 -27 -99 -60 -205 -33 -105 -60 -193 -60 -196 0 -3
59 -6 130 -6 87 0 130 4 130 11 0 6 -25 90 -56 187 -31 98 -59 187 -61 200 -6
24 -23 31 -23 9z"/>
<path d="M4420 5509 l0 -302 113 6 c125 6 180 22 237 67 83 66 121 213 86 335
-14 45 -29 69 -69 109 -66 66 -130 86 -270 86 l-97 0 0 -301z"/>
<path d="M6895 5809 c-16 -41 -52 -134 -81 -206 l-52 -133 159 0 159 0 -11 28
c-6 15 -37 101 -70 191 -33 90 -63 170 -68 179 -6 10 -16 -6 -36 -59z"/>
<path d="M7570 5739 l0 -171 138 4 c161 4 202 18 240 83 18 32 22 51 19 98 -4
69 -26 103 -87 135 -39 19 -59 22 -177 22 l-133 0 0 -171z"/>
<path d="M4199 4394 c-29 -36 -8 -114 31 -114 41 0 69 87 38 118 -17 17 -53
15 -69 -4z"/>
<path d="M2947 4411 c-9 -27 -17 -50 -17 -52 0 -7 80 -7 80 -1 0 14 -34 102
-40 102 -3 0 -13 -22 -23 -49z"/>
<path d="M8230 4385 l0 -95 45 0 c63 0 95 32 95 93 0 67 -28 97 -91 97 l-49 0
0 -95z"/>
<path d="M3172 4398 c-16 -16 -16 -90 0 -106 32 -32 78 1 78 57 0 42 -14 61
-45 61 -12 0 -26 -5 -33 -12z"/>
<path d="M3381 4396 c-18 -21 -10 -97 12 -110 38 -24 80 39 61 92 -11 31 -53
42 -73 18z"/>
<path d="M3582 4398 c-16 -16 -16 -90 0 -106 47 -47 112 35 78 99 -12 22 -59
26 -78 7z"/>
<path d="M4493 4325 c-27 -19 -20 -45 11 -45 27 0 46 18 46 42 0 22 -28 24
-57 3z"/>
<path d="M4970 4331 c-35 -10 -34 -45 1 -49 29 -3 54 20 45 43 -6 16 -8 17
-46 6z"/>
<path d="M5380 4391 c-10 -20 -8 -21 35 -21 39 0 46 3 43 18 -5 27 -64 29 -78
3z"/>
<path d="M6346 4388 c-9 -12 -16 -32 -16 -43 0 -31 28 -65 54 -65 33 0 46 19
46 65 0 23 -5 46 -12 53 -19 19 -55 14 -72 -10z"/>
<path d="M6990 4315 c-15 -19 -5 -35 24 -35 25 0 46 17 46 37 0 18 -55 17 -70
-2z"/>
<path d="M7416 4388 c-9 -12 -16 -32 -16 -43 0 -31 28 -65 54 -65 32 0 48 22
48 65 0 20 -6 42 -12 50 -18 22 -57 18 -74 -7z"/>
<path d="M8496 4394 c-9 -8 -16 -17 -16 -20 0 -2 23 -4 50 -4 48 0 50 1 40 20
-13 24 -52 26 -74 4z"/>
<path d="M8870 4390 c-10 -19 -8 -20 40 -20 51 0 60 6 38 28 -19 19 -66 15
-78 -8z"/>
<path d="M9160 4391 c-35 -66 26 -144 74 -95 19 18 21 85 4 102 -19 19 -66 15
-78 -7z"/>
<path d="M9382 4398 c-7 -7 -12 -34 -12 -60 0 -43 2 -48 27 -54 47 -12 80 55
53 107 -12 21 -50 25 -68 7z"/>
<path d="M9593 4403 c-8 -3 -13 -25 -13 -59 0 -50 2 -54 27 -60 20 -6 31 -2
45 16 20 25 22 47 8 84 -9 25 -35 32 -67 19z"/>
<path d="M9780 4390 c-10 -19 -8 -20 40 -20 51 0 60 6 38 28 -19 19 -66 15
-78 -8z"/>
<path d="M10280 4391 c-10 -20 -8 -21 35 -21 39 0 46 3 43 18 -5 27 -64 29
-78 3z"/>
<path d="M11090 4391 c-24 -46 -5 -111 34 -111 30 0 56 30 56 64 0 43 -17 66
-50 66 -19 0 -33 -7 -40 -19z"/>
<path d="M11862 4398 c-21 -21 -13 -28 33 -28 25 0 45 4 45 8 0 15 -24 32 -45
32 -12 0 -26 -5 -33 -12z"/>
<path d="M12465 4330 c-36 -6 -43 -43 -10 -48 28 -3 47 12 43 34 -2 16 -9 18
-33 14z"/>
</g>
</svg>
